<?xml version="1.0" encoding="UTF-8"?><svg id="Calque_2" xmlns="http://www.w3.org/2000/svg" viewBox="0 0 158.94 438.6"><defs><style>.cls-1{opacity:.93;}.cls-2{fill:#f2f3f1;}</style></defs><g id="LesVrais"><g id="orpheeFace"><g id="doudou"><g><path class="cls-2" d="M4.97,285.73c0,1.81,1.08,3.53,2.59,4.52s3.42,1.29,5.21,1.03c.87-.13,1.73-.38,2.49-.84,1.81-1.1,2.79-3.38,2.47-5.48-.32-2.1-1.84-3.94-3.79-4.78-1.95-.84-4.26-.72-6.17,.19-.6,.29-1.18,.65-1.63,1.15-1.48,1.63-1.25,4.17-.57,6.26,.43,1.32,1.07,2.68,2.26,3.37,1.61,.94,3.64,.39,5.37-.3,1.64-.66,3.43-1.65,3.82-3.37,.26-1.15-.2-2.38-.96-3.29s-1.77-1.56-2.78-2.17c-1.7-1.02-3.69-2.02-5.58-1.44-1.21,.37-2.16,1.32-2.91,2.34-.63,.86-1.18,1.83-1.3,2.9-.09,.86,.11,1.73,.44,2.53,.92,2.23,2.93,4,5.28,4.56s4.98-.14,6.68-1.85,2.39-4.39,1.65-6.69"/><path class="cls-2" d="M4.59,285.73c.1,3.84,3.77,6.17,7.35,6,1.8-.08,3.62-.68,4.8-2.09,1.05-1.25,1.57-2.95,1.36-4.57-.44-3.5-3.74-5.9-7.15-5.82-1.76,.04-3.76,.64-5.01,1.93-1.17,1.21-1.41,2.95-1.22,4.56s.72,3.41,1.74,4.71c1.1,1.39,2.75,1.77,4.45,1.49,2.88-.47,7.44-2.51,6.4-6.17-.52-1.83-2.1-2.99-3.64-3.93s-3.43-1.99-5.36-1.75-3.2,1.64-4.17,3.13c-1.1,1.67-1.31,3.47-.53,5.33,1.32,3.13,4.61,5.27,8.04,4.89s6.29-3.1,6.55-6.65c.06-.85-.04-1.7-.29-2.51-.14-.46-.86-.26-.72,.2,.89,2.92-.47,6.11-3.19,7.5s-5.95,.77-8.07-1.34c-1.07-1.06-1.94-2.52-2.06-4.04-.14-1.68,.93-3.29,2.06-4.44,1.26-1.28,2.83-1.64,4.54-1.09,1.55,.5,3.15,1.46,4.41,2.49s2.28,2.59,1.68,4.2c-.48,1.28-1.81,2.02-2.99,2.54-1.44,.64-3.22,1.29-4.8,.84s-2.3-1.87-2.77-3.27-.76-2.81-.48-4.21c.32-1.63,1.5-2.64,3.01-3.2,2.92-1.08,6.4-.24,8.07,2.5,1.87,3.05,.29,7-3.21,7.82s-7.92-1.01-8.03-5.05c-.01-.48-.76-.48-.75,0h0Z"/></g><g><path class="cls-2" d="M4.72,282.38c-.42-1.19-.71-2.49-.35-3.7,.49-1.61,2.19-2.72,3.87-2.65s3.23,1.25,3.89,2.8l-7.41,3.55Z"/><path class="cls-2" d="M5.08,282.28c-.4-1.17-.75-2.5-.28-3.7,.35-.91,1.17-1.63,2.08-1.96,2.02-.71,4.1,.53,4.92,2.4l.13-.51c-2.16,1.04-4.33,2.07-6.49,3.11-.31,.15-.61,.29-.92,.44-.44,.21-.06,.86,.38,.65,2.16-1.04,4.33-2.07,6.49-3.11,.31-.15,.61-.29,.92-.44,.2-.09,.21-.34,.13-.51-.74-1.69-2.45-2.96-4.32-2.98s-3.64,1.21-4.14,2.99c-.36,1.27-.05,2.61,.37,3.83,.16,.45,.88,.26,.72-.2Z"/></g><g><path class="cls-2" d="M2.94,286.49c-1.66,.35-2.85,2.16-2.51,3.82,.31,1.52,1.75,2.65,3.29,2.87,1.02,.15,2.09-.06,2.98-.58l-3.76-6.12Z"/><path class="cls-2" d="M2.84,286.12c-1.67,.38-2.94,2.06-2.83,3.78,.11,1.82,1.69,3.27,3.43,3.61,1.18,.23,2.41,0,3.45-.58,.17-.1,.24-.34,.13-.51-1.1-1.78-2.19-3.57-3.29-5.35-.16-.25-.31-.51-.47-.76-.25-.41-.9-.03-.65,.38,1.1,1.78,2.19,3.57,3.29,5.35,.16,.25,.31,.51,.47,.76l.13-.51c-1.8,1.01-4.34,.65-5.4-1.24-.92-1.64,.13-3.78,1.93-4.19,.47-.11,.27-.83-.2-.72Z"/></g><g><path class="cls-2" d="M14.64,296.7c-2.32,2.56-3.49,4.2-4.48,6.49-1.19,2.74-2.03,5.84-1.14,8.69,.53,1.69,1.89,3.29,3.66,3.45,1.91,.17,3.58-1.36,4.52-3.03,1.59-2.82,1.86-6.17,2.05-9.4,.07-1.16,.12-2.35-.16-3.47-.28-1.13-.96-2.22-2.02-2.71s-1.83-1.02-2.42-.02"/><path class="cls-2" d="M14.37,296.43c-2.35,2.6-4.26,5.33-5.36,8.69-1.01,3.08-1.34,7.26,1.4,9.59,2.58,2.2,5.67,.3,7.11-2.22,1.84-3.21,2.14-7.36,2.15-10.99,0-1.7-.35-3.55-1.75-4.68-1.04-.84-2.69-1.63-3.61-.31-.28,.4,.37,.77,.65,.38,.51-.74,1.45-.1,2.03,.21,.62,.34,1.08,.87,1.39,1.5,.73,1.46,.55,3.21,.45,4.78-.18,2.97-.46,6.09-1.97,8.73-.66,1.16-1.67,2.3-2.98,2.71-1.51,.46-2.92-.32-3.78-1.56-1.78-2.55-1.1-6.03-.09-8.74,1.08-2.91,2.82-5.27,4.89-7.56,.32-.36-.21-.89-.53-.53h0Z"/></g><g><path class="cls-2" d="M24.3,284.78c-1.46-2.04-1.77-4.73-1.33-7.2s1.56-4.76,2.76-6.96c.9-1.65,1.96-3.38,3.68-4.15,1.69-.76,3.72-.4,5.3,.55,2.26,1.37,3.75,4.19,2.99,6.72-.22,.74-.61,1.41-1.02,2.06-2.15,3.41-4.99,6.38-8.28,8.69-.62,.43-1.29,.86-2.04,.94s-1.61-.27-1.85-.99l-.21,.32Z"/><path class="cls-2" d="M24.63,284.59c-1.92-2.8-1.71-6.3-.62-9.37,.57-1.62,1.36-3.15,2.19-4.65,.73-1.32,1.58-2.72,2.91-3.51,2.97-1.76,6.86,.41,8.03,3.37,1.28,3.22-1.29,6.25-3.26,8.57-1.13,1.33-7.6,8.39-9.04,5.27-.13-.27-.51-.22-.65,0l-.21,.32c-.26,.41,.39,.78,.65,.38l.21-.32h-.65c1.67,3.63,6.98-1.75,8.38-3.14s2.63-2.86,3.74-4.45,2.12-3.2,1.95-5.17c-.29-3.32-3.32-6.05-6.61-6.19-3.96-.17-5.88,3.83-7.34,6.87-1.85,3.86-2.93,8.61-.33,12.4,.27,.4,.92,.02,.65-.38Z"/></g><g><path class="cls-2" d="M21.24,283.66c-2.18,1.72-3.69,4.26-4.15,7-.73,4.27,1.02,8.52,2.29,12.66,.58,1.88,1.08,3.81,2.1,5.49,1.24,2.03,3.29,3.62,5.64,4.02s4.94-.5,6.32-2.43c.67-.94,1.04-2.06,1.3-3.19,1-4.24,.64-8.8-1.02-12.83s-4.61-7.53-8.31-9.84c-1.16-.72-2.18-1.35-3.54-1.35l-.64,.47Z"/><path class="cls-2" d="M20.97,283.4c-4.53,3.71-5.06,9.28-3.62,14.65,.8,2.99,1.7,6.11,2.85,8.99,.88,2.22,2.32,4.17,4.45,5.32,1.98,1.07,4.34,1.26,6.42,.37,2.24-.96,3.41-2.91,3.98-5.2,1.35-5.37,.49-11.23-2.33-15.99-1.45-2.45-3.37-4.6-5.65-6.3-1.09-.82-2.3-1.68-3.6-2.13-1.03-.36-1.59-.38-2.43,.24-.38,.28-.01,.93,.38,.65,.17-.12,.38-.37,.57-.42,.5-.14,1.45,.31,1.88,.52,.94,.45,1.83,1.06,2.67,1.68,1.91,1.41,3.58,3.17,4.9,5.15,2.69,4.02,3.87,8.92,3.36,13.73-.27,2.5-.85,5.42-3.09,6.9-1.95,1.28-4.47,1.31-6.53,.27-2.18-1.11-3.58-3.11-4.42-5.36s-1.52-4.68-2.24-7.02c-.87-2.85-1.61-5.87-1.05-8.86,.49-2.64,1.95-4.95,4.02-6.64,.37-.31-.16-.83-.53-.53Z"/></g><g><path class="cls-2" d="M28.13,312.23c-1.5,.23-2.51,1.66-3.12,3.06-.69,1.59-1.11,3.28-1.44,4.99-.3,1.58-.53,3.2-.35,4.8s.83,3.2,2.03,4.26,3.02,1.51,4.49,.84c1.42-.65,2.25-2.15,2.73-3.63,.61-1.89,.8-3.88,.86-5.87,.06-2.01-.01-4.07-.69-5.97-.25-.69-.59-1.36-1.13-1.85s-1.33-.75-2.03-.52l-1.35-.11Z"/><path class="cls-2" d="M28.03,311.87c-3.29,.66-4.21,5.26-4.75,7.99-.66,3.31-1.04,7.54,1.93,9.92,1.07,.86,2.53,1.29,3.89,1.01,1.45-.3,2.51-1.43,3.16-2.71,.8-1.57,1.13-3.35,1.31-5.08,.2-1.92,.27-3.9,.03-5.81-.2-1.63-.64-3.81-2.11-4.81-.97-.66-2.23-.42-3.35-.51-.48-.04-.48,.71,0,.75,.65,.05,1.25,.03,1.88,.03,1.77-.01,2.41,2.34,2.69,3.7,.59,2.95,.4,6.42-.36,9.32-.34,1.31-.86,2.7-1.9,3.62-1.19,1.05-2.88,1.05-4.22,.28-2.99-1.71-2.9-5.74-2.37-8.68,.3-1.66,.67-3.32,1.28-4.89,.57-1.46,1.44-3.06,3.1-3.4,.47-.09,.27-.82-.2-.72Z"/></g><g><path class="cls-2" d="M35.46,306.44c-1.05,3.99,.23,8.5,3.21,11.34,1.37,1.3,3.27,2.3,5.11,1.85,.4-.1,.8-.27,1.06-.58,.29-.34,.39-.81,.46-1.25,.63-4.21-.82-8.69-3.81-11.73-.89-.9-2-1.72-3.26-1.74s-3.03,.88-2.76,2.12"/><path class="cls-2" d="M35.1,306.34c-.73,2.9-.35,6,1.03,8.66,1.29,2.48,3.87,5.27,6.93,5.11,1.53-.08,2.4-.84,2.62-2.34s.18-2.94-.07-4.4c-.52-3.02-2.04-6.04-4.37-8.07-1.12-.98-2.52-1.62-4.02-1.22-1.15,.31-2.3,1.14-2.12,2.45,.07,.48,.79,.27,.72-.2-.16-1.11,1.55-1.65,2.4-1.64,1.31,.02,2.4,.98,3.25,1.89,1.68,1.81,2.82,4.1,3.32,6.51,.25,1.23,.34,2.49,.24,3.73-.04,.57-.05,1.34-.38,1.84-.48,.73-1.68,.77-2.45,.63-2.47-.43-4.4-2.67-5.48-4.79-1.24-2.45-1.57-5.31-.9-7.98,.12-.47-.61-.67-.72-.2h0Z"/></g><g><path d="M77.26,63.9l28.25-16.26c2.85-1.64,5.99-3.34,9.24-2.86,2.49,.37,4.61,1.96,6.6,3.5,3.25,2.51,6.51,5.03,9.76,7.54,1.69,1.31,3.4,2.63,4.72,4.31,1.51,1.92,2.45,4.23,3.19,6.57,3.45,10.95,2.63,23.25-2.55,33.49-5.18,10.25-14.72,18.27-25.79,21.29-.34,5.77-.57,11.55-.69,17.33-.02,.75-.02,1.53,.26,2.23,1.02,2.48,4.55,2.21,7.07,3.11,2.67,.96,4.46,3.58,5.18,6.32s.53,5.63,.34,8.45c-.4,5.92-.79,11.84-1.19,17.76-.08,1.2-.17,2.43-.65,3.54-.57,1.29-1.64,2.3-2.81,3.09-5.77,3.88-13.36,2.75-20.31,2.61-8.31-.17-17.49,1.05-24.13-3.95-4.21-3.17-6.5-8.36-7.26-13.57-.76-5.21-.15-10.51,.45-15.74,.35-2.98,.87-6.28,3.24-8.11,4.04-3.12,10.29,.21,14.87-2.03-.23-4.11-.46-8.22-.69-12.32-.32-5.74-.93-12.11-5.2-15.96-2.67-2.42-6.34-3.38-9.36-5.35-2.91-1.89-5.13-4.63-7.31-7.33-2.26-2.81-4.59-5.76-5.32-9.29-1.06-5.17,1.53-10.34,4.34-14.8,4.07-6.47,8.56-10.97,15.75-13.56h0Z"/><path d="M78.02,65.19c8.99-5.17,17.98-10.35,26.97-15.52,2.05-1.18,4.11-2.5,6.41-3.14s4.29-.23,6.27,.96,3.95,2.87,5.86,4.34c2.02,1.56,4.03,3.12,6.05,4.67,1.85,1.43,3.8,2.84,5.23,4.72s2.18,3.94,2.84,6.07c1.33,4.28,1.98,8.74,1.96,13.22-.03,8.71-2.66,17.32-7.77,24.4s-12.93,12.71-21.56,15.11c-.67,.19-1.06,.78-1.1,1.45-.19,3.3-.36,6.6-.48,9.9-.05,1.49-.1,2.97-.14,4.46-.04,1.61-.27,3.36,.07,4.95,.48,2.27,2.4,3.4,4.51,3.92,2.27,.56,4.46,.68,6.1,2.56,1.82,2.09,2.27,4.94,2.29,7.62,.02,3.15-.32,6.31-.53,9.45s-.44,6.58-.66,9.87c-.1,1.42-.08,2.92-.37,4.32s-1.17,2.52-2.36,3.37c-4.39,3.1-10.12,2.89-15.24,2.68s-10.52,.04-15.77-.23-10.18-1.41-13.76-5.23c-3.69-3.94-5.02-9.51-5.17-14.77-.1-3.52,.26-7.02,.65-10.51,.29-2.53,.43-5.69,2.28-7.65s4.78-1.63,7.19-1.48c2.76,.17,5.45,.26,8.03-.92,.45-.2,.77-.82,.74-1.3-.22-3.94-.44-7.89-.67-11.83-.17-2.96-.36-5.95-1.02-8.85s-1.75-5.44-3.61-7.61c-2-2.34-4.81-3.61-7.52-4.92-3.01-1.45-5.46-3.3-7.68-5.81s-4.32-4.99-5.93-7.79c-1.75-3.05-2.09-6.29-1.12-9.67s2.75-6.29,4.63-9.11c3.5-5.24,8.05-9.39,14.02-11.59,1.8-.66,1.02-3.56-.8-2.89-5.61,2.07-10.22,5.54-13.87,10.26-3.88,5.03-8.1,11.62-7.51,18.25,.3,3.39,1.9,6.35,3.9,9.03s4.16,5.49,6.65,7.81,5.37,3.65,8.36,5.14,5.11,3.22,6.45,6.17,1.73,6.6,1.95,9.95c.29,4.48,.51,8.97,.76,13.45l.74-1.3c-2.34,1.07-5.14,.56-7.61,.44s-5.16,.04-7.25,1.59-3.08,3.99-3.56,6.47c-.58,2.99-.83,6.1-1.06,9.14-.46,6.07-.09,12.33,2.72,17.85,2.54,5,7,8.41,12.43,9.75s11.16,.91,16.73,.95,11.65,.93,17.27-.59c2.56-.69,5.25-1.94,7.05-3.94,2.18-2.42,2.1-5.59,2.31-8.66,.23-3.45,.46-6.91,.69-10.36s.68-6.93,.45-10.37c-.21-3.14-1.13-6.29-3.37-8.6-2.12-2.19-4.71-2.39-7.48-3.14-1.42-.39-2.09-.92-2.14-2.48-.06-1.96,.09-3.95,.15-5.9,.13-3.96,.31-7.92,.55-11.88l-1.1,1.45c8.27-2.3,15.76-7.2,21.26-13.79,5.95-7.14,9.41-15.96,10.13-25.22,.37-4.79,0-9.66-1.1-14.34s-2.82-9.36-6.53-12.67c-3.99-3.56-8.48-6.67-12.72-9.93-1.86-1.43-3.82-2.9-6.14-3.49s-4.77-.19-6.99,.71c-2.76,1.12-5.29,2.76-7.86,4.23l-8.13,4.68c-5.49,3.16-10.99,6.32-16.48,9.48-1.67,.96-.16,3.56,1.51,2.59Z"/></g></g><g><path d="M17.06,298.58c.07,.3,.13,.61,.19,.91,.03,.15,.05,.3,.07,.45,0,.04,.01,.07,.02,.11,.01,.09,0-.04,0,.05s.02,.17,.03,.25c.02,.19,.16,.38,.38,.38,.18,0,.4-.17,.38-.38-.08-.66-.19-1.32-.34-1.97-.04-.19-.27-.32-.46-.26-.2,.06-.31,.26-.26,.46h0Z"/><path d="M18.03,301.74c.25,.6,.45,1.21,.6,1.84,.05,.19,.27,.32,.46,.26,.2-.06,.31-.26,.26-.46-.15-.63-.35-1.24-.6-1.84-.04-.09-.08-.17-.17-.22-.08-.05-.2-.07-.29-.04-.17,.06-.34,.27-.26,.46h0Z"/><path d="M19.12,304.63c.19,.57,.34,1.15,.45,1.74,.04,.19,.28,.32,.46,.26,.21-.07,.3-.25,.26-.46-.12-.59-.27-1.17-.45-1.74-.06-.19-.26-.33-.46-.26-.19,.06-.33,.26-.26,.46h0Z"/><path d="M25.94,313.01c.83,.03,1.65,.06,2.47,.04,.2,0,.38-.17,.38-.38s-.16-.38-.38-.38c-.83,.02-1.65-.01-2.47-.04-.2,0-.38,.18-.38,.38,0,.21,.16,.37,.38,.38h0Z"/><path d="M30.33,312.8c.64-.09,1.27-.24,1.88-.44,.19-.06,.33-.26,.26-.46-.06-.19-.26-.33-.46-.26-.61,.2-1.24,.34-1.88,.44-.19,.03-.32,.28-.26,.46,.07,.21,.25,.29,.46,.26h0Z"/><path d="M35.11,309.21c.34-.76,.55-1.57,.61-2.4,.01-.2-.18-.38-.38-.38-.22,0-.36,.16-.38,.38,0,.09-.01,.19-.03,.28,0,.03,0,.05,0,.08t0,0s-.01,.09-.02,.14c-.03,.18-.07,.36-.11,.53s-.1,.35-.16,.52c-.03,.09-.06,.18-.1,.26-.04,.1-.04,.11-.09,.21-.08,.18-.06,.41,.13,.51,.16,.09,.43,.06,.51-.13h0Z"/><path d="M36.06,305.53c.2-.57,.35-1.16,.44-1.76,.02-.1,.02-.2-.04-.29-.05-.08-.13-.15-.22-.17-.18-.04-.43,.05-.46,.26-.09,.6-.24,1.19-.44,1.76-.07,.19,.07,.42,.26,.46,.21,.05,.39-.06,.46-.26h0Z"/><path d="M22.43,282.44c.48,.27,.95,.57,1.41,.89,.16,.11,.42,.03,.51-.13,.1-.19,.04-.39-.13-.51-.45-.32-.92-.62-1.41-.89-.17-.1-.42-.05-.51,.13s-.05,.41,.13,.51h0Z"/><path d="M25.8,284.39c.21,.14,.43,.27,.66,.37,.26,.12,.54,.18,.81,.28,.06,.02,.18,.09,.27,.13,.1,.06,.2,.11,.31,.17,.22,.12,.46,.23,.71,.29,.2,.04,.41-.06,.46-.26,.05-.19-.06-.42-.26-.46-.23-.05-.38-.13-.59-.25s-.43-.24-.65-.33c-.22-.09-.46-.13-.67-.22-.23-.1-.45-.24-.66-.37-.17-.11-.41-.03-.51,.13-.11,.18-.04,.4,.13,.51h0Z"/><path d="M16.95,290.79c.27-.27,.57-.53,.81-.84s.44-.66,.57-1.05c.06-.19-.07-.42-.26-.46-.21-.05-.39,.06-.46,.26-.01,.04-.03,.08-.04,.12,0,.02-.01,.04-.02,.05-.02,.05,.03-.06,0,0-.04,.07-.07,.15-.11,.22s-.08,.14-.13,.21c-.02,.04-.05,.07-.08,.11s-.01,.02,0,0c-.01,.02-.03,.04-.05,.06-.23,.28-.51,.53-.77,.79-.14,.14-.15,.39,0,.53s.38,.15,.53,0h0Z"/><path d="M18.27,285.39c-.01,.17-.03,.34-.05,.5,0,.08-.02,.15-.03,.23-.01,.09,0-.02,0,.05,0,.05-.01,.09-.02,.13-.05,.33-.11,.65-.18,.98-.04,.19,.06,.41,.26,.46,.19,.04,.42-.06,.46-.26,.15-.69,.26-1.4,.31-2.1,.01-.2-.18-.38-.38-.38-.22,0-.36,.16-.38,.38h0Z"/><path d="M4.71,282.08s.03-.04,.02-.04c0,.02-.05,.06-.01,.02,.03-.02,.05-.05,.08-.07,.03-.03,.07-.05,.1-.08,.01-.01,.03-.02,.04-.04,0,0,.06-.04,.02-.01s.01,0,.02-.01c.02-.01,.03-.02,.05-.03,.03-.02,.06-.05,.09-.07,.07-.05,.13-.1,.2-.14,.26-.18,.52-.35,.8-.51,.17-.1,.24-.34,.13-.51s-.33-.24-.51-.13c-.29,.17-.57,.35-.84,.54-.15,.11-.3,.22-.44,.33s-.3,.22-.39,.39c-.09,.18-.05,.41,.13,.51,.17,.09,.42,.05,.51-.13h0Z"/><path d="M8.19,279.99c.72-.39,1.42-.68,2.21-.92,.19-.06,.33-.26,.26-.46s-.26-.32-.46-.26c-.83,.25-1.63,.59-2.39,1-.17,.09-.24,.35-.13,.51,.11,.18,.33,.23,.51,.13h0Z"/><path d="M12.28,278.75c.84-.18,1.7-.27,2.56-.27,.2,0,.38-.17,.38-.38s-.17-.38-.38-.38c-.93,0-1.85,.11-2.76,.3-.2,.04-.31,.27-.26,.46,.06,.21,.26,.3,.46,.26h0Z"/><path d="M2.6,285.34c.01,.65,.22,1.26,.44,1.86,.07,.18,.26,.33,.46,.26,.18-.06,.33-.26,.26-.46-.1-.28-.21-.56-.29-.85-.04-.14-.07-.28-.1-.42,0-.01-.02-.13-.01-.08s0-.07,0-.08c0-.08-.01-.15-.01-.23,0-.2-.17-.38-.38-.38s-.38,.16-.38,.38h0Z"/><path d="M3.83,288.68c.07,.37,.29,.7,.47,1.02,.19,.34,.38,.67,.58,1.01,.1,.17,.34,.24,.51,.13s.24-.33,.13-.51c-.19-.33-.37-.65-.56-.98-.09-.15-.17-.3-.26-.46-.02-.04-.04-.08-.06-.12,0-.02-.04-.1-.02-.03-.04-.08-.06-.17-.08-.26-.03-.19-.28-.32-.46-.26-.21,.07-.3,.25-.26,.46h0Z"/><path d="M6.13,292c.44,.51,.92,1,1.43,1.44,.15,.13,.39,.16,.53,0,.13-.14,.16-.39,0-.53-.51-.45-.99-.93-1.43-1.44-.13-.15-.4-.14-.53,0-.15,.16-.14,.37,0,.53h0Z"/><path d="M9.56,310.21c.07,.4,.2,.79,.37,1.16,.04,.08,.14,.15,.22,.17,.09,.02,.21,.01,.29-.04s.15-.13,.17-.22c.02-.1,0-.19-.04-.29-.03-.05-.05-.11-.07-.16l.04,.09c-.12-.29-.21-.59-.26-.91-.01-.09-.1-.18-.17-.22-.08-.05-.2-.07-.29-.04s-.18,.09-.22,.17c-.05,.09-.06,.18-.04,.29h0Z"/><path d="M11.09,312.6c.27,.4,.63,.73,1.04,.97,.08,.05,.19,.06,.29,.04,.09-.02,.18-.09,.22-.17,.09-.18,.05-.41-.13-.51-.11-.06-.22-.14-.32-.22l.08,.06c-.19-.15-.35-.31-.5-.5l.06,.08s-.06-.08-.09-.12c-.06-.08-.13-.15-.22-.17-.09-.02-.21-.01-.29,.04s-.15,.13-.17,.22-.02,.21,.04,.29h0Z"/><path d="M14.11,313.64c.77,.04,1.36-.49,1.86-1,.14-.14,.15-.39,0-.53s-.38-.15-.53,0c-.11,.11-.21,.22-.33,.32-.06,.05-.11,.1-.17,.15-.03,.03-.03,.02,0,0-.02,.01-.03,.02-.05,.03-.03,.02-.06,.04-.09,.07-.06,.04-.13,.08-.19,.11-.02,.01-.12,.07-.04,.02-.03,.02-.07,.03-.1,.04-.07,.02-.15,.05-.22,.05,.11,0-.02,0-.04,0-.04,0-.07,0-.11,0-.2-.01-.38,.18-.38,.38,0,.21,.16,.36,.38,.38h0Z"/><path d="M27.94,269.94c.17-.17,.34-.35,.52-.52,.09-.09,.19-.18,.29-.26,.05-.04,.09-.08,.14-.12,.04-.03,.11-.09,.11-.09,.2-.15,.4-.28,.62-.4,.05-.03,.1-.05,.16-.08,.03-.01-.02,0,.04-.01,.02,0,.05-.02,.07-.03,.12-.04,.24-.08,.37-.1,.2-.04,.31-.28,.26-.46-.06-.21-.26-.3-.46-.26-1.08,.2-1.91,1.04-2.65,1.79-.14,.14-.14,.39,0,.53s.39,.15,.53,0h0Z"/><path d="M32.36,267.92c.44,.09,.8,.27,1.18,.53,.02,.01,.04,.03,.06,.04,0,0,.06,.05,.03,.02s.02,.02,.03,.02c.02,.02,.05,.04,.07,.06,.11,.09,.22,.18,.33,.27,.22,.18,.43,.36,.65,.54,.16,.13,.38,.15,.53,0,.13-.13,.16-.4,0-.53-.81-.67-1.61-1.45-2.68-1.67-.19-.04-.41,.06-.46,.26-.04,.19,.06,.42,.26,.46h0Z"/><path d="M35.49,271.27c.41,1.26-.27,2.5-.87,3.57-.23,.42,.41,.8,.65,.38,.7-1.25,1.42-2.69,.94-4.15-.15-.46-.87-.26-.72,.2h0Z"/><path d="M40.61,317.59c.63,.43,1.38,.67,2.14,.68,.2,0,.38-.17,.38-.38s-.16-.37-.38-.38c-.09,0-.18,0-.27-.01-.04,0-.08,0-.12-.01-.03,0-.02,0,.02,0-.02,0-.04,0-.07-.01-.17-.03-.33-.07-.49-.12-.07-.02-.15-.05-.22-.08-.04-.02-.04-.02,0,0-.02,0-.04-.02-.06-.03-.04-.02-.08-.04-.12-.06-.15-.08-.29-.16-.43-.26-.16-.11-.42-.03-.51,.13-.1,.19-.04,.39,.13,.51h0Z"/><path d="M44.51,318.12c.73-.26,1.07-1.08,1.11-1.81,.01-.2-.18-.38-.38-.38-.21,0-.36,.16-.38,.38,0,.04,0,.07,0,.11,0,.01-.01,.08,0,.01s0,0,0,.01c-.01,.07-.03,.14-.05,.21s-.04,.14-.07,.21c0,.02-.04,.09,0,0,0,.01-.01,.03-.02,.04-.02,.04-.03,.07-.05,.1-.03,.06-.07,.12-.11,.18-.02,.02-.05,.05,.02-.02-.01,.01-.02,.03-.03,.04-.02,.02-.04,.05-.07,.07s-.05,.04-.07,.06c-.05,.04,.01,0,.02-.02,0,.01-.03,.02-.04,.03-.03,.02-.05,.03-.08,.05,0,0-.03,.02-.04,.02l.06-.02s-.02,0-.03,.01c-.18,.07-.33,.26-.26,.46,.06,.18,.26,.33,.46,.26h0Z"/><path d="M44.51,313.69v.02s-.02-.06-.03-.09c.08,.18,.13,.37,.15,.56v-.1c.01,.19,.01,.39-.01,.59v-.1s0,.03,0,.04c-.02,.1-.02,.2,.04,.29,.05,.08,.13,.15,.22,.17,.1,.02,.2,.02,.29-.04,.08-.05,.16-.13,.17-.22,.04-.24,.05-.48,.02-.73-.03-.27-.1-.52-.21-.77-.03-.08-.14-.15-.22-.17-.09-.02-.21-.01-.29,.04s-.15,.13-.17,.22c-.02,.1,0,.19,.04,.29h0Z"/><path d="M24.07,325.29c.1,.87,.52,1.7,1.21,2.25,.15,.12,.38,.16,.53,0,.12-.14,.16-.4,0-.53-.15-.12-.28-.24-.4-.39-.01-.02-.03-.03-.04-.05,0,0-.06-.07-.03-.04,.03,.04-.01-.02-.02-.02-.02-.02-.03-.04-.05-.06-.05-.08-.1-.16-.15-.24-.04-.08-.08-.16-.12-.24-.01-.03-.02-.06,0-.01,0-.02-.02-.04-.02-.06-.02-.04-.03-.09-.05-.13-.03-.09-.05-.18-.07-.27-.01-.05-.02-.09-.03-.14,0-.02,0-.04-.01-.06-.02-.1,0,.08,0-.02-.02-.19-.16-.38-.38-.38-.18,0-.4,.17-.38,.38h0Z"/><path d="M26.65,328.42c.27,.22,.59,.31,.93,.37s.71,.09,1.07,.05c.67-.06,1.31-.31,1.81-.77,.35-.33-.18-.86-.53-.53s-.81,.51-1.28,.55c-.27,.03-.55,.02-.81-.02-.2-.03-.5-.05-.66-.18s-.38-.15-.53,0c-.13,.13-.16,.4,0,.53h0Z"/><path d="M31.59,326.45c.41-.56,.74-1.16,1-1.8,.03-.08,0-.21-.04-.29-.05-.08-.13-.15-.22-.17-.22-.05-.38,.07-.46,.26-.02,.04-.02,.04,0,0,0,.02-.02,.04-.02,.06-.02,.04-.03,.07-.05,.11-.03,.07-.07,.15-.1,.22-.07,.14-.14,.28-.22,.42-.16,.28-.34,.55-.53,.81-.12,.16-.03,.43,.13,.51,.2,.1,.39,.03,.51-.13h0Z"/><path d="M16.47,295.44c.03,.62,.25,1.2,.34,1.8,.03,.19,.28,.32,.46,.26,.21-.07,.29-.25,.26-.46-.04-.28-.11-.56-.18-.83-.03-.13-.06-.27-.09-.4,0-.04-.01-.07-.02-.11,0-.02-.03-.13,0-.04-.02-.07-.02-.15-.02-.22-.01-.2-.16-.38-.38-.38-.19,0-.39,.17-.38,.38h0Z"/></g><g class="cls-1"><path d="M140.37,151.01c9.25,25.12,19.05,50.87,17.24,78.21-.43,6.49-1.46,12.92-2.56,19.32-1.76,10.25-3.69,20.47-5.8,30.64-.57,.87-1.1,2.5-1.56,1.57-11.33-23.14-17.3-62.71-15.84-89.86-.14-14.48,.42-38.96,6.73-40.13,.53-.1,1.12-.04,1.79,.25Z"/><path class="cls-2" d="M139.28,151.3c7,18.99,14.34,38.24,16.67,58.49,1.2,10.46,.77,20.84-.8,31.23s-3.66,21.4-5.79,32.04c-.26,1.29-.52,2.59-.79,3.88-.13,.63-.2,1.32-.44,1.92-.07,.18-.21,.39-.3,.56-.27,.5-.51,.49,.28,.65,.95,.19,.48,.16,.36-.31-.05-.2-.19-.39-.27-.57-.18-.39-.36-.77-.54-1.16-.39-.85-.77-1.71-1.13-2.58-1.49-3.54-2.78-7.17-3.94-10.83-2.56-8.07-4.49-16.33-6-24.65s-2.65-17.26-3.27-25.97c-.29-4.11-.48-8.23-.53-12.35-.05-3.78,.23-7.55,.2-11.33-.06-7.29,.04-14.61,.69-21.88,.3-3.3,.7-6.61,1.47-9.84,.48-2.01,1.06-4.5,2.54-6.04,.7-.72,1.34-.85,2.4-.46,1.36,.5,1.95-1.67,.6-2.17-5.74-2.12-7.52,6.72-8.21,10.49-1.36,7.45-1.61,15.12-1.72,22.67-.05,3.73-.04,7.44-.15,11.17-.13,4.18-.09,8.36,.07,12.54,.34,9,1.25,17.98,2.6,26.89s3.19,17.85,5.66,26.57c1.15,4.05,2.44,8.07,3.93,12.01,.67,1.77,1.38,3.53,2.14,5.27,.36,.84,.74,1.68,1.13,2.51,.33,.7,.61,1.72,1.41,2.01,1.78,.67,2.77-2.33,3.02-3.54,.57-2.75,1.12-5.49,1.66-8.25,1.11-5.67,2.17-11.34,3.18-17.03,1.94-11.02,3.83-22.09,3.54-33.32-.54-21.41-7.47-41.94-14.76-61.86-.9-2.45-1.8-4.89-2.7-7.34-.5-1.35-2.67-.76-2.17,.6Z"/></g><g class="cls-1"><path d="M50.1,147.77c-7.94,5.78-25.34,43.42-26.72,76.31-.25,6.05,.59,12.1,1.26,18.11,1.07,9.63,2.32,19.25,3.74,28.83,.51,.84,.93,2.39,1.45,1.56,12.85-20.83,25.96-83.05,26.42-108.12,1.02-8.87-.44-15.59-3.76-16.72-.59-.2-1.37-.27-2.39,.03Z"/><path class="cls-2" d="M49.53,146.8c-1.89,1.4-3.34,3.32-4.67,5.23-2.01,2.89-3.73,5.99-5.33,9.12-4.31,8.46-7.75,17.38-10.55,26.45-3.19,10.37-5.52,21.07-6.43,31.89-.53,6.32-.19,12.5,.52,18.79s1.49,13.05,2.34,19.56c.42,3.19,.86,6.38,1.32,9.57,.2,1.42,.2,3.15,.83,4.44,.37,.75,.74,1.83,1.67,2.04,1.47,.33,2.32-2,2.88-3.02,.72-1.31,1.38-2.65,2.02-4.01,3.21-6.87,5.69-14.08,7.92-21.31,5.27-17.07,9.2-34.62,12.13-52.25,1.24-7.47,2.31-14.98,2.88-22.53,.11-1.49,.21-2.99,.26-4.48,.09-2.24,.35-4.46,.37-6.7,.04-3.75-.17-8.83-2.98-11.71-1.34-1.37-3.1-1.66-4.92-1.19-1.4,.36-.81,2.53,.6,2.17,3.97-1.01,4.73,4.87,4.95,7.57,.32,4.02-.14,8.12-.39,12.15-.41,6.89-1.32,13.76-2.38,20.58-2.61,16.73-6.21,33.35-10.86,49.63-2.09,7.32-4.4,14.6-7.25,21.67-1.14,2.84-2.38,5.64-3.8,8.35-.31,.59-.63,1.18-.96,1.76-.15,.26-.3,.52-.45,.78-.03,.06-.19,.25-.2,.34-.33,.43,.01,.49,1.02,.18-.08-.13-.15-.26-.21-.4-.05-.25-.28-.49-.36-.74-.1-.3-.13-.66-.18-.98-.12-.73-.21-1.46-.32-2.19-.24-1.63-.46-3.25-.69-4.88-.86-6.25-1.65-12.5-2.35-18.77s-1.63-12.54-1.48-18.85c.24-10.36,2.22-20.71,4.9-30.69,2.47-9.21,5.65-18.26,9.62-26.93,2.66-5.81,5.58-12.02,9.82-16.88,.55-.63,1.29-1.39,1.86-1.81,1.15-.85,.03-2.81-1.14-1.94Z"/></g><g class="cls-1"><path d="M59.05,338.17c-1.86,31.4,.44,61.75,9.88,89.6,8.37-24.77,12.64-53.25,12.24-81.7l-22.13-7.89Z"/><path class="cls-2" d="M57.93,338.17c-1.39,23.68-.52,47.66,4.63,70.88,1.42,6.43,3.19,12.78,5.29,19.02,.36,1.07,1.81,1.07,2.17,0,6.84-20.3,10.6-41.6,11.86-62.96,.37-6.34,.51-12.69,.43-19.04,0-.53-.35-.92-.83-1.08-6.46-2.31-12.93-4.61-19.39-6.92l-2.74-.98c-1.37-.49-1.95,1.69-.6,2.17,6.46,2.31,12.93,4.61,19.39,6.92l2.74,.98-.83-1.08c.29,21.76-2.03,43.6-7.32,64.73-1.41,5.62-3.03,11.19-4.88,16.68h2.17c-7.49-22.16-10.36-45.58-10.44-68.9-.02-6.8,.2-13.6,.59-20.39,.08-1.45-2.17-1.44-2.25,0Z"/></g><g class="cls-1"><path d="M133.46,342.93c3.13,28.91-.52,58.96-10.33,84.96-10.3-22.58-12.52-53.13-13-79.4l23.33-5.56Z"/><path class="cls-2" d="M132.34,342.93c2.39,22.33,.88,45.12-4.69,66.88-1.54,6.02-3.41,11.96-5.6,17.78l2.06-.27c-8.64-19.04-11.08-40.62-12.23-61.29-.32-5.84-.51-11.69-.62-17.54l-.83,1.08c6.79-1.62,13.59-3.24,20.38-4.86l2.94-.7c1.41-.34,.81-2.51-.6-2.17-6.79,1.62-13.59,3.24-20.38,4.86l-2.94,.7c-.47,.11-.83,.6-.83,1.08,.39,21.43,1.63,43.29,7.42,64.03,1.52,5.44,3.4,10.78,5.73,15.93,.44,.97,1.75,.54,2.06-.27,7.89-21,11.58-43.57,11.46-65.98-.04-6.44-.4-12.88-1.09-19.28-.15-1.42-2.4-1.44-2.25,0Z"/></g><g><path class="cls-2" d="M100.89,74.99l-.42,.07c-1.08,1.8-1.68,3.9-1.71,6-.02,1.28,.24,2.69,1.24,3.48,.29,.23,.65,.4,1.01,.32,.6-.13,.85-.85,.97-1.45,.4-2.01,.61-4.05,.63-6.09,0-.61-.01-1.26-.36-1.76s-1.14-.74-1.57-.31"/><path class="cls-2" d="M100.59,73.9c-.62,.1-.96,.33-1.27,.89-.28,.49-.51,1.01-.73,1.53-.38,.92-.64,1.88-.79,2.87-.26,1.75-.35,3.84,.71,5.36,.57,.82,1.45,1.52,2.5,1.44s1.69-.96,1.96-1.91c.29-1,.39-2.1,.52-3.13s.21-2.16,.24-3.25,0-2.25-.8-3.08c-.83-.87-2.14-.93-3.04-.17-.47,.39-.4,1.19,0,1.59,.46,.46,1.12,.39,1.59,0-.08,.09-.17,.12-.27,.11,.14,0,.16,0,.05,0-.06-.04,.09,.05,.12,.1,.06,.1,.09,.43,.1,.6,.04,.91-.03,1.85-.1,2.76s-.19,1.83-.35,2.74c-.07,.41-.12,.85-.27,1.25-.02,.05-.07,.23-.06,.16-.09,.1-.11,.11-.04,.04,.19-.03,.26-.05,.19-.05-.04,.06-.46-.42-.44-.4-.19-.26-.28-.52-.37-.82-.18-.67-.18-1.38-.14-2.1,.11-1.7,.66-3.35,1.53-4.82l-.67,.52,.42-.07c.6-.1,.93-.84,.79-1.38-.18-.64-.78-.88-1.38-.79h0Z"/></g><g><path class="cls-2" d="M125.35,75.53l-.42,.07c-1.08,1.8-1.68,3.9-1.71,6-.02,1.28,.24,2.69,1.24,3.48,.29,.23,.65,.4,1.01,.32,.6-.13,.85-.85,.97-1.45,.4-2.01,.61-4.05,.63-6.09,0-.61-.01-1.26-.36-1.76s-1.14-.74-1.57-.31"/><path class="cls-2" d="M125.05,74.45c-.62,.1-.96,.33-1.27,.89-.28,.49-.51,1.01-.73,1.53-.38,.92-.64,1.88-.79,2.87-.26,1.75-.35,3.84,.71,5.36,.57,.82,1.45,1.52,2.5,1.44s1.69-.96,1.96-1.91c.29-1,.39-2.1,.52-3.13s.21-2.16,.24-3.25,0-2.25-.8-3.08c-.83-.87-2.14-.93-3.04-.17-.47,.39-.4,1.19,0,1.59,.46,.46,1.12,.39,1.59,0-.08,.09-.17,.12-.27,.11,.14,0,.16,0,.05,0-.06-.04,.09,.05,.12,.1,.06,.1,.09,.43,.1,.6,.04,.91-.03,1.85-.1,2.76s-.19,1.83-.35,2.74c-.07,.41-.12,.85-.27,1.25-.02,.05-.07,.23-.06,.16-.09,.1-.11,.11-.04,.04,.19-.03,.26-.05,.19-.05-.04,.06-.46-.42-.44-.4-.19-.26-.28-.52-.37-.82-.18-.67-.18-1.38-.14-2.1,.11-1.7,.66-3.35,1.53-4.82l-.67,.52,.42-.07c.6-.1,.93-.84,.79-1.38-.18-.64-.78-.88-1.38-.79h0Z"/></g><g><path class="cls-2" d="M58.48,87.17c.07,3.95,1.01,6.8,1.74,8.51,2.96,6.96,9.91,12.91,16.05,15.42,.57,.23,3.26,1.3,6.12,3.6,1.46,1.18,3.94,3.18,3.54,4.36-.46,1.35-4.45,.65-11.22,.49-9.45-.22-18.89-1.21-28.19-2.97-1.37-.26-2.8-.56-3.92-1.42-2.21-1.7-2.54-4.94-2.62-7.79-.34-12.03,.25-24.07,.84-36.09,.27-5.49,.56-11.08,2.32-16.27,1.69-4.98,4.67-9.37,7.74-13.59,6.66-9.16,14.48-18.25,25.02-21.83,4.89-1.66,10.1-2.03,15.25-2.27,7.7-.36,15.47-.46,23.05,1.02,7.57,1.48,15,4.64,20.62,10.09,5.84,5.67,9.4,13.52,11.15,21.6,1.74,8.08,1.79,16.45,1.46,24.72-.21,5.15-.56,10.29-1.05,15.42-.72,7.48,.34,17.31-4.48,22.93-5.83,6.8-17.59,6.58-26.3,7.85-1.6,.23-3.8,.03-4.04-1.61-.06-.42-.11-1.08,.84-2.22,3.59-4.28,14.06-7.44,19.03-13.08,5.31-6.03,1.67-11.89,5.97-20.76,.58-1.2,2.47-5.08,2.37-10.26,0-.32-.03-.6-.06-.88-.83-7.89-7.4-13.17-10.59-15.4-3.62-2.52-7.39-6.54-12.41-10.33-10.2,1.89-17.21,5.43-21.8,8.42-6.27,4.08-8.15,7.19-15.32,10.09-7.13,2.88-9.73,1.59-13.61,4.38-3.19,2.29-6.79,6.99-7.49,17.85Z"/><path class="cls-2" d="M57.36,87.17c.23,8.97,5.27,16.41,12.42,21.56,1.66,1.2,3.44,2.25,5.31,3.08,1.39,.61,2.76,1.2,4.06,1.99,1.81,1.1,3.75,2.48,5.13,4.11,.19,.22,.36,.72,.56,.86-.08-.06,.2-.22,.1-.23-.19-.02-.93,.18-1.26,.19-1.94,.08-3.89-.11-5.83-.2-2.68-.12-5.36-.15-8.04-.29-5.76-.3-11.51-.87-17.21-1.75-2.57-.4-5.37-.64-7.84-1.48s-3.21-2.92-3.5-5.25c-.32-2.58-.23-5.24-.25-7.83-.02-2.89,0-5.77,.07-8.65,.12-5.69,.36-11.37,.63-17.06s.3-11.09,1.36-16.5,3.34-9.8,6.27-14.16c2.69-3.99,5.6-7.88,8.76-11.51s6.42-6.81,10.28-9.42c4.17-2.81,8.76-4.58,13.72-5.39,5.5-.89,11.2-.99,16.76-1.02s11.06,.29,16.45,1.5c9.59,2.15,18.29,7.17,23.63,15.61,5.62,8.88,7.3,19.52,7.49,29.86s-1.13,20.73-1.52,31.11c-.16,4.25-.26,8.74-1.88,12.74-1.53,3.77-4.75,6.22-8.48,7.6s-7.95,1.94-11.99,2.38c-2,.22-4,.41-6,.67-.82,.11-4.01,.78-3.91-.78,.09-1.41,2.56-2.87,3.59-3.55,1.55-1.02,3.18-1.91,4.8-2.8,3.5-1.92,7.13-3.84,10.07-6.59s4.19-5.91,4.65-9.7c.52-4.34,.72-8.46,2.63-12.49,1.54-3.24,2.5-6.71,2.5-10.32,0-4.21-1.82-8.18-4.39-11.44-2.01-2.55-4.48-4.58-7.1-6.46-3.88-2.78-7.2-6.28-10.95-9.22-.39-.3-.96-.9-1.45-1.02s-1.06,.09-1.53,.18c-1.33,.27-2.66,.57-3.98,.91-2.22,.58-4.41,1.27-6.56,2.09-3.46,1.33-6.81,2.95-9.95,4.93-3.46,2.18-6.46,4.96-9.83,7.26-3.68,2.51-7.89,4.15-12.25,5.04-2.98,.6-5.69,1.14-8.15,3.07-2.08,1.64-3.65,3.85-4.73,6.26-1.71,3.8-2.39,7.95-2.67,12.08-.1,1.45,2.15,1.44,2.25,0,.33-4.84,1.22-10.03,4.13-14.05,2.06-2.85,4.85-4.25,8.25-4.9,5.31-1.01,10.41-2.78,14.85-5.94,4-2.84,7.62-6.06,11.95-8.45,5.67-3.13,11.87-5.12,18.22-6.32l-.87-.11c3.51,2.67,6.65,5.76,10.06,8.54,2.2,1.8,4.57,3.31,6.59,5.32,2.46,2.45,4.49,5.4,5.38,8.79,.97,3.7,.31,7.71-1.1,11.22-.54,1.34-1.23,2.61-1.72,3.98-.65,1.79-1.05,3.65-1.3,5.53-.42,3.16-.26,6.56-1.55,9.54-1.4,3.23-4.35,5.43-7.24,7.25s-6.13,3.39-9.12,5.21c-2.08,1.27-5.69,3.37-5.74,6.16-.07,3.71,4.38,3.23,6.82,2.93,6.9-.86,14.33-.97,20.64-4.23,2.97-1.53,5.48-3.88,6.89-6.93,1.54-3.32,2-7,2.23-10.61,.25-3.87,.32-7.73,.67-11.59,.44-4.89,.75-9.79,.93-14.69,.62-17.17-1.13-37.23-15.81-48.62-6.83-5.3-15.31-7.84-23.81-8.75-4.87-.53-9.79-.53-14.68-.37s-9.5,.34-14.16,1.25c-8.27,1.61-15.21,6.31-21,12.29-2.86,2.95-5.44,6.16-7.89,9.45-2.61,3.5-5.2,7.07-7.19,10.98-4.28,8.43-4.21,17.95-4.64,27.18-.47,10.04-.87,20.11-.56,30.16,.11,3.53,.66,7.73,4.26,9.4,1.99,.92,4.34,1.14,6.48,1.5,2.35,.4,4.71,.74,7.08,1.04,5.01,.64,10.06,1.07,15.11,1.27,3.87,.15,7.81,.5,11.68,.41,2.02-.05,4.65-.95,3.27-3.52-.74-1.38-2.12-2.43-3.31-3.39-1.49-1.21-3.07-2.29-4.79-3.15-1.14-.58-2.35-1.01-3.49-1.58-1.7-.85-3.32-1.87-4.84-3.02-3.15-2.39-5.95-5.39-7.92-8.83-1.82-3.18-2.68-6.68-2.77-10.34-.04-1.45-2.29-1.45-2.25,0Z"/></g><g><path d="M75.01,67.84c.03,.68-.58,1.24-1.22,1.44s-1.34,.13-2.02,.13c-3.67,.02-7.2,2.49-8.48,5.93-.88,2.35,1.8,6.97,3.66,8.65,.73,.66-.78-.6,0,0s1.45,1.49,1.36,2.47h0c.09,.56,.06,.39,.08,.99-2.14,1.45-5.23,.69-7.09-1.11s-2.73-4.38-3.32-6.9c-.4-1.75-.7-3.58-.28-5.33,.32-1.34,1.04-2.56,1.87-3.66,1.7-2.26,3.94-4.17,6.6-5.13s5.74-.9,8.2,.5l.65,2.01Z"/><path d="M73.89,67.84c-.06,.67-3.2,.51-3.82,.62-1.12,.2-2.21,.61-3.2,1.17-2.03,1.14-3.68,2.96-4.55,5.12-.74,1.85-.06,3.88,.74,5.6,.45,.97,1.01,1.9,1.64,2.76,.5,.68,1.14,1.22,1.66,1.87l1.36-1.77c.2,.12-.11-.08-.21-.19l-1.36,1.77c1.02,.56,1.1,1.64,1.11,2.66l.56-.97c-2.56,1.6-5.55-.2-6.95-2.48-.79-1.28-1.26-2.71-1.63-4.16-.44-1.74-.87-3.63-.45-5.42,.68-2.88,3.27-5.55,5.73-7.05,2.8-1.7,6.32-2.16,9.28-.57l-.52-.67,.65,2.01c.44,1.37,2.62,.78,2.17-.6-.25-.77-.42-2.05-1.05-2.6-1.41-1.22-4.04-1.47-5.81-1.37-4.12,.23-7.74,2.62-10.24,5.8-1.29,1.64-2.33,3.45-2.56,5.55-.24,2.23,.31,4.58,.97,6.7,1.12,3.61,3.46,7.1,7.49,7.63,1.49,.2,4.64-.07,4.62-2.1-.02-1.71-.62-3.44-2.22-4.32-1.15-.63-2.2,.81-1.36,1.77,.17,.2,.44,.4,.66,.54,1.16,.7,2.12-.82,1.36-1.77-.43-.54-.97-.97-1.39-1.53-.61-.82-1.14-1.72-1.56-2.65-.38-.83-.73-1.77-.75-2.69s.51-1.81,1.04-2.55c1.25-1.76,3.26-3,5.39-3.35,1.23-.2,2.52,.1,3.7-.37,1.06-.43,1.68-1.29,1.78-2.42,.13-1.44-2.12-1.43-2.25,0Z"/></g><g><path class="cls-2" d="M82.46,121.56l.04,19.44"/><path class="cls-2" d="M81.33,121.56c.01,6.48,.03,12.96,.04,19.44,0,1.45,2.25,1.45,2.25,0-.01-6.48-.03-12.96-.04-19.44,0-1.45-2.25-1.45-2.25,0h0Z"/></g><g><path class="cls-2" d="M111.11,121.11l.56,21.16c-.02-.14-.03-.27-.05-.41"/><path class="cls-2" d="M109.99,121.11c.19,7.05,.37,14.1,.56,21.16h2.25l-.05-.41c-.16-1.42-2.41-1.44-2.25,0l.05,.41c.15,1.4,2.29,1.48,2.25,0-.19-7.05-.37-14.1-.56-21.16-.04-1.45-2.29-1.45-2.25,0h0Z"/></g><g><path class="cls-2" d="M82.51,141.67c-1.86,.13-7.66,.4-9.52,.62-4,.46-8.01,.92-11.91,1.85-1.58,.38-3.14,.83-4.7,1.28-2.71,.78-5.41,1.57-8.12,2.35l5.32-.15c.23,16.27,2.14,30.11,4.15,43.79,2.28,15.53,4.5,47.21,4.76,65.69-8.53,29.04-19.7,50.62-26.72,80.6-.1,.42-.36,.84-.64,.72s-.14-1,.11-.75l1.62,.84c17.01-1.37,33.68,7.54,50.65,10.18,7.53,1.17,15.13,1.1,22.63-.2,10.68-1.86,21.21-6.22,31.99-5.81,5.16,.2,10.36,1.5,15.47,.41l-.82-1.74c-7.65-30.45-18.23-53.09-28.75-81.95,.25-17.67,.28-51.31,2.98-65.38,2.6-13.6,5.17-27.26,5.41-44.33l4.83,.82c-2.58-1.08-5.15-2.16-7.73-3.25-1.48-.62-2.97-1.25-4.47-1.75-3.71-1.25-7.5-1.8-11.27-2.34-1.75-.25-3.51-.5-5.26-.62l10.14,2.36c0,2.49,0,4.99,0,7.49,.03,8.56,.12,17.06,.28,25.51-3.41,2.04-13.08,7.22-26.7,6.82-13.75-.4-23.3-6.25-26.61-8.49-.12-8.5-.24-17.01-.36-25.51-.03-2.5-.07-4.99-.19-7.49"/><path class="cls-2" d="M82.51,141.3c-4.63,.31-9.23,.53-13.83,1.13-7.03,.92-13.72,3.01-20.51,4.98-.4,.12-.33,.75,.1,.74l5.32-.15-.38-.38c.17,11.24,1.21,22.43,2.7,33.57,1.13,8.41,2.38,16.77,3.2,25.21,.89,9.2,1.56,18.42,2.1,27.64,.26,4.49,.48,8.98,.66,13.48,.08,2.08,.15,4.17,.2,6.25,.02,.86,.08,1.73,.05,2.59-.04,1.43-.63,2.86-1.05,4.23-6.36,20.72-15.15,40.61-21.43,61.35-.79,2.61-1.55,5.24-2.26,7.88-.36,1.35-.72,2.71-1.06,4.07-.19,.77-.38,1.54-.57,2.31-.08,.35-.59,1.78-.55,1.86,.1,.21,1.22,.7,1.48,.77,.98,.27,2.45-.08,3.48-.09,2.82-.02,5.64,.22,8.44,.63,11.02,1.64,21.44,5.83,32.25,8.37,11.36,2.68,22.82,2.74,34.2,.12,5.63-1.29,11.17-2.97,16.86-3.99,2.92-.52,5.88-.86,8.84-.85s5.94,.44,8.91,.7c2.7,.23,5.38,.26,8.05-.27,.26-.05,.32-.35,.22-.55-1.22-2.57-1.73-5.38-2.49-8.12-1.02-3.7-2.1-7.39-3.24-11.06-2.19-7-4.6-13.92-7.15-20.8-5.13-13.86-10.74-27.53-15.84-41.4-.31-.85-.75-1.73-.79-2.65-.02-.54,.01-1.09,.02-1.63,.02-1.27,.03-2.53,.04-3.8,.03-2.7,.06-5.4,.1-8.1,.08-5.87,.17-11.73,.33-17.6,.29-10.67,.47-21.55,2.19-32.1,1.16-7.06,2.67-14.05,3.68-21.14,1.18-8.23,1.88-16.51,2-24.82l-.47,.36,4.83,.82c.48,.08,.64-.54,.2-.72-4.69-1.97-9.37-4.3-14.29-5.63s-9.7-1.98-14.54-2.34c-.42-.03-.51,.64-.1,.74,3.38,.79,6.76,1.58,10.14,2.36l-.28-.36c-.01,9.7,.06,19.4,.21,29.09,.01,.65,.02,1.3,.03,1.95,0,.39,.18,1.26,.06,1.58-.1,.29-.59,.49-.93,.67-.93,.52-1.87,1-2.83,1.46-2.82,1.34-5.78,2.39-8.81,3.16-8.25,2.11-17.01,2.04-25.24-.15-3.24-.86-6.4-2.05-9.41-3.54-1.09-.54-2.16-1.12-3.21-1.74-.42-.25-.83-.5-1.24-.76-.23-.15-.86-.41-.99-.65-.14-.26,.05-1.65,.04-1.96,0-.65-.02-1.31-.03-1.96-.02-1.39-.04-2.78-.06-4.17-.04-2.78-.08-5.56-.12-8.34-.08-5.44-.06-10.89-.31-16.32-.02-.48-.77-.48-.75,0,.37,8.04,.31,16.12,.42,24.17,.03,1.96,.05,3.92,.08,5.89,.02,1.12-.45,2.81,.58,3.5,1.37,.92,2.8,1.75,4.26,2.51,10.94,5.72,23.84,7.31,35.83,4.34,4.64-1.15,9.14-2.96,13.25-5.41,.11-.07,.19-.19,.19-.32-.2-11-.3-22-.28-33,0-.16-.12-.32-.28-.36-3.38-.79-6.76-1.58-10.14-2.36l-.1,.74c4.92,.37,10.06,1.09,14.81,2.44s9.28,3.6,13.82,5.5l.2-.72-4.83-.82c-.24-.04-.47,.1-.47,.36-.22,14.6-2.47,28.93-5.2,43.25-1.93,10.1-2.22,20.53-2.56,30.78-.37,11.4-.46,22.81-.6,34.21,0,.48-.09,1.05-.01,1.52,.15,.9,.67,1.85,.98,2.71,.67,1.82,1.35,3.63,2.03,5.44,1.33,3.52,2.68,7.03,4.04,10.54,2.66,6.84,5.35,13.67,7.94,20.53s5.04,13.64,7.31,20.56c1.2,3.66,2.34,7.34,3.42,11.04,.54,1.87,1.07,3.75,1.58,5.63s.82,3.82,1.47,5.61c.22,.61,.56,1.2,.84,1.78l.22-.55c-4.33,.86-8.68,.11-13.02-.27-4.05-.35-8.08-.1-12.09,.58-8.34,1.4-16.35,4.3-24.74,5.46s-17.57,.61-26.17-1.37c-7.94-1.84-15.64-4.56-23.53-6.57-4.19-1.07-8.44-1.94-12.75-2.34-2.26-.21-4.53-.28-6.79-.18-.84,.04-1.31,.17-2.05-.22-.37-.19-.73-.42-1.12-.55-.12-.04-.28,0-.36,.1-.32,.35-.41,1.12,.08,1.38,1,.53,1.29-1.38,1.41-1.88,.9-3.78,1.89-7.53,2.97-11.26,1.99-6.89,4.26-13.69,6.68-20.44,4.83-13.48,10.15-26.78,14.53-40.41,.57-1.76,1.12-3.53,1.65-5.3,.23-.75,.59-1.57,.68-2.35,.07-.57-.02-1.2-.03-1.78-.05-2.71-.14-5.42-.24-8.13-.23-6.03-.56-12.07-.95-18.09-.74-11.54-1.62-23.1-3.11-34.57-.92-7.08-2.05-14.12-2.86-21.21-.97-8.53-1.59-17.1-1.72-25.69,0-.2-.17-.38-.38-.38l-5.32,.15,.1,.74c6.89-2,13.66-4.1,20.79-5.01,4.45-.57,8.89-.78,13.36-1.07,.48-.03,.48-.78,0-.75h0Z"/></g><g><path class="cls-2" d="M66.37,416.42c-1.28,1.53-2.38,2.35-3.28,3.57-1.85,2.55-2.91,4.02-3.4,7.13s.46,6.62,3.03,8.44c1.9,1.33,4.35,1.57,6.66,1.53,1.63-.03,3.33-.19,4.72-1.05,.82-.51,1.48-1.24,2.09-1.99,1.24-1.5,2.4-3.29,2.24-5.22-.13-1.63-.52-3.84-1.52-5.14-.88-1.13-1.64-2.61-2.51-3.74-1.73-2.24-3.25-4.03-5.7-5.45l-2.34,1.91Z"/><path class="cls-2" d="M65.3,415.36c-1.45,1.71-3.04,3.18-4.34,5.03-1.14,1.62-2.07,3.34-2.52,5.29-.96,4.15,0,8.98,3.82,11.38,1.99,1.25,4.45,1.54,6.75,1.54s4.82-.33,6.73-1.92c1.7-1.41,3.31-3.55,3.93-5.68,.59-1.99,.15-4.46-.59-6.36-.47-1.2-1.25-2.17-1.93-3.25s-1.36-2.09-2.14-3.08c-1.58-2.01-3.34-3.79-5.56-5.11-.62-.37-1.3-.19-1.82,.23l-2.34,1.91c-1.5,1.22,.64,3.33,2.12,2.12l2.34-1.91-1.82,.23c3.2,1.9,5.11,4.9,7.14,7.9,.99,1.47,1.57,2.74,1.79,4.53,.23,1.88-.58,3.34-1.75,4.76-1.32,1.61-2.7,2.43-4.8,2.56-1.85,.11-3.87,.1-5.61-.61-3.19-1.29-4.09-5.05-3.46-8.15,.37-1.79,1.16-3.28,2.2-4.77,1.17-1.68,2.64-3.01,3.96-4.56,1.25-1.46-.87-3.59-2.12-2.12Z"/></g><g><path class="cls-2" d="M65.01,31.25c-4.85,.31-10.16,.52-14.08-1.95-2.65-1.67-4.24-4.34-5.17-7.06-1.16-3.4-1.41-7.07-.32-10.49s3.61-6.56,7.15-8.35c1.5-.76,3.14-1.27,4.82-1.63,6.54-1.43,14.34-.35,18.39,4.29,3.38,3.87,3.4,9.31,1.74,13.96-1.33,3.72-3.78,7.31-7.63,9.33-3.85,2.02-.99,.61-6.11,2.02"/><path class="cls-2" d="M65.01,30.13c-3.45,.22-7.05,.46-10.42-.47s-6.03-3.44-7.4-6.79c-2.78-6.78-.98-14.85,5.8-18.4,5.54-2.9,13.64-3.13,19.12,.03,6.14,3.53,6.45,11.12,3.63,16.97-1.66,3.45-4.14,5.75-7.49,7.5-.64,.34-.78,.45-1.36,.57-1.14,.23-2.25,.45-3.38,.76-1.4,.38-.8,2.55,.6,2.17,1.73-.47,3.48-.62,5.07-1.45,3.34-1.73,6.03-3.97,7.91-7.28,3.55-6.26,4.07-15.1-2.06-19.97C69.29-.76,60.43-.87,53.83,1.65c-7.85,3-11.62,11.13-9.66,19.18,1.03,4.24,3.45,8.31,7.55,10.18s8.86,1.66,13.29,1.37c1.44-.09,1.45-2.34,0-2.25h0Z"/></g><g><path class="cls-2" d="M137.29,32.86c-4.19,.3-8.78,.5-12.18-1.98-2.3-1.67-3.68-4.35-4.49-7.07-1.01-3.4-1.24-7.07-.3-10.49s3.11-6.55,6.17-8.33c1.29-.75,2.72-1.26,4.17-1.62,5.65-1.42,12.4-.32,15.91,4.33,2.93,3.88,2.96,9.32,1.53,13.97-1.14,3.72-3.25,7.3-6.58,9.32-3.32,2.01-.86,.61-5.28,2.01"/><path class="cls-2" d="M137.29,31.73c-3.13,.22-6.5,.48-9.5-.67s-4.85-3.86-5.85-6.81c-2.11-6.25-1.25-14.31,4.79-18.1,4.75-2.98,11.98-3.17,16.66,.04,5.27,3.61,5.22,10.85,3.25,16.27-1.21,3.33-3.24,6.05-6.28,7.89-.38,.23-.77,.51-1.18,.7-.07,.03,.02,.02-.26,.08-1.01,.22-1.99,.45-2.98,.76-1.38,.43-.79,2.6,.6,2.17,1.67-.52,3.21-.71,4.71-1.62,3.09-1.87,5.37-4.36,6.86-7.67,2.74-6.08,3.27-14.38-2.02-19.3-4.91-4.57-12.87-4.77-18.77-2.18-7.3,3.21-9.76,11.67-8.24,19,.81,3.92,2.68,7.98,6.27,10.07s7.94,1.88,11.93,1.6c1.44-.1,1.45-2.35,0-2.25h0Z"/></g><g class="cls-1"><path d="M73.49,191.41c15.5,3.58,32.07,5.33,47.06-1.2,1.32-.58,.18-2.52-1.14-1.94-14.37,6.27-30.49,4.4-45.32,.98-1.41-.33-2.01,1.84-.6,2.17h0Z"/></g><g class="cls-1"><path d="M72.56,190.63c.92,6.29,1.83,12.58,2.75,18.87,.07,.49,.63,.81,1.08,.83,8.68,.23,17.35,.38,26.03,.44,4.37,.03,8.77,.19,13.14,.02,1.75-.07,2.44-1.01,2.91-2.61,.55-1.85,.94-3.75,1.21-5.66,.61-4.31,.68-8.68,1.37-12.99,.23-1.42-1.94-2.03-2.17-.6-.71,4.45-.78,8.96-1.44,13.41-.17,1.16-.39,2.31-.66,3.44-.14,.6-.3,1.2-.48,1.79-.26,.86-.33,.89-1.24,.96-2.53,.18-5.15,0-7.69,0-10.33-.03-20.66-.19-30.99-.46l1.08,.83c-.92-6.29-1.83-12.58-2.75-18.87-.21-1.43-2.38-.82-2.17,.6h0Z"/></g><g class="cls-1"><path d="M63.5,179.98s-.16-.07-.2-.07l.14,.06s-.08-.04-.12-.06c-.06-.03-.12-.07-.18-.11-.2-.13,.18,.18,0,0-.04-.04-.24-.3-.29-.3,.08,0,.14,.2,.01,0-.05-.08-.1-.16-.14-.24l-.03-.06c-.05-.11-.04-.08,.03,.08,0-.03-.06-.16-.07-.2-.02-.07-.04-.13-.05-.2v-.07c-.03-.12-.03-.09,0,.1,.03-.11,0-.29,0-.41,0-.24-.07,.26,0,.03,.02-.09,.05-.17,.07-.26,.06-.23-.13,.22,0,.02,.04-.06,.07-.12,.11-.18,.12-.21-.18,.18-.02,.02,.04-.04,.09-.09,.13-.13,.16-.16-.23,.14-.03,.03,.05-.03,.11-.06,.16-.09,.19-.12-.26,.08-.04,.01,.08-.02,.16-.05,.24-.07,.06-.01,.12-.02,.18-.04-.29,.09-.17,.02-.05,.02,.12,0,.25,.02,.37,.01-.29,.02-.17-.03-.05,0,.06,.01,.12,.03,.18,.05,.06,.02,.12,.05,.17,.06-.17-.08-.21-.09-.1-.04,.04,.02,.07,.04,.11,.06,.03,.02,.07,.04,.1,.06,.19,.11-.2-.18-.04-.03,.04,.04,.09,.08,.13,.12,.11,.12,.02,.13-.03-.04,.01,.04,.07,.11,.09,.15,.12,.18-.07-.26-.02-.05,.02,.07,.04,.14,.06,.21-.07-.26,0,.11,0,.18,.01,.28,.07-.19,0,.08-.03,.09-.05,.19-.08,.28-.07,.28,.1-.14-.03,.07-.04,.07-.08,.14-.12,.21-.03,.06-.14,.29,0,.03-.03,.06-.11,.13-.16,.18-.06,.06-.12,.11-.17,.17-.09,.08-.08,.07,.04-.02-.04,.03-.09,.06-.13,.09-.1,.06-.3,.23-.42,.23l.12-.05s-.1,.04-.15,.05c-.08,.03-.15,.05-.23,.07-.05,.01-.18,.06-.23,.05l.14-.02c-.05,0-.11,0-.16,.01-.08,0-.16,0-.24,0-.13-.01-.11,0,.06,.02-.05,0-.1-.02-.16-.03-.08-.02-.15-.04-.23-.06-.25-.06,.2,.12-.02,0-.07-.04-.14-.07-.21-.11-.06-.04-.28-.13-.03,0-.13-.07-.24-.22-.34-.32-.18-.18,.12,.2-.02-.02-.06-.09-.11-.17-.16-.27l-.04-.07c-.05-.11-.05-.09,.02,.05-.02-.03-.05-.12-.05-.15-.02-.07-.05-.15-.06-.22l-.02-.08c-.02-.12-.02-.1,0,.07-.03-.02-.03-.45,0-.46l-.02,.14c0-.05,.02-.1,.03-.15,.01-.05,.03-.1,.04-.15,.04-.11,.03-.09-.03,.06-.01-.02,.2-.39,.22-.38l-.09,.11s.06-.08,.1-.11c.05-.05,.1-.11,.16-.16l.06-.05c.09-.08,.08-.06-.05,.04,0-.02,.17-.11,.19-.12,.06-.04,.13-.07,.2-.1,.11-.05,.09-.04-.06,.03,.05-.02,.09-.03,.14-.05,.07-.02,.14-.04,.21-.06h.07c.12-.03,.1-.03-.08,0,0,0,.43,.01,.44,0l-.15-.02s.1,.02,.14,.03c.01,0,.21,.06,.21,.07,0,.02-.24-.12-.01,0,.04,.02,.08,.05,.12,.07,.1,.07,.08,.05-.06-.05,0,0,.27,.29,.29,.3l-.09-.12s.05,.08,.08,.12c.04,.06,.07,.12,.1,.18,.12,.21-.07-.25,0-.01,.02,.07,.04,.13,.06,.2,.01,.04,.02,.18,.05,.2-.02-.18-.03-.21-.01-.09,0,.05,0,.09,0,.14,0,.07,0,.14,0,.21,0,.24,.07-.26,0-.03-.02,.08-.11,.26-.09,.33l.06-.14s-.04,.08-.06,.12c0,.02-.12,.17-.11,.17l.09-.11s-.07,.07-.1,.11c-.03,.03-.07,.07-.11,.1,.13-.1,.15-.11,.06-.04-.06,.04-.12,.08-.18,.11-.23,.12-.01-.02,0,0,0,.01-.42,.11-.42,.11l.15-.02s-.1,.01-.15,.01c-.07,0-.15,0-.22,0s-.15,0-.22-.01c-.12-.01-.1,0,.07,.01-.05,0-.1-.02-.15-.03-.15-.03-.29-.08-.44-.13-.25-.08,.22,.12-.01,0-.07-.04-.14-.07-.2-.11s-.13-.08-.19-.12c-.22-.13,.18,.17-.01,0-.06-.05-.12-.11-.18-.16-.04-.04-.28-.33-.12-.11-.05-.07-.09-.15-.14-.22-.15-.21,.03,.19-.03-.06l-.03-.09c-.03-.13-.03-.11,0,.04-.03-.07,0-.18,0-.25,0-.26-.08,.21,.01-.03,.03-.08,.04-.17,.08-.24-.15,.25,.01,0,.04-.04,.03-.05,.26-.34,.08-.14,.14-.16,.28-.31,.45-.44-.18,.15-.06,.04-.01,.02,.1-.06,.2-.13,.31-.18,.04-.02,.32-.14,.07-.04,.12-.04,.23-.09,.35-.12,.09-.02,.18-.04,.27-.06,.13-.02,.12-.02-.02,0,.06,0,.12-.01,.18-.01,.09,0,.18,0,.28,0,.06,0,.12,0,.18,.01-.15-.02-.16-.02-.03,0,.09,.03,.18,.05,.26,.07,.12,.04,.11,.04-.01-.01,.05,.02,.1,.05,.15,.08,.05,.03,.17,.08,.2,.13-.12-.1-.14-.11-.05-.03,.04,.04,.08,.07,.11,.11l.05,.06c.08,.09,.07,.08-.03-.04,.07,.03,.12,.2,.17,.27,.14,.22-.06-.23,.01,.02,.03,.1,.06,.2,.08,.3,.06,.25,.01-.25,0,0,0,.05,0,.1,0,.15-.01,.13,0,.1,.01-.07,.01,0-.05,.21-.06,.22-.05,.21,.1-.22-.04,.05-.11,.2,.18-.17,.01-.02-.03,.03-.06,.06-.1,.09-.09,.08-.07,.06,.07-.05-.02,0-.15,.09-.17,.1-.16,.1,.25-.07-.04,.01-.05,.01-.16,.02-.2,.05,.19-.02,.22-.03,.1-.02-.04,0-.09,0-.13,0-.21,0-.08-.08,.04,.01-.04,0-.08-.02-.13-.03-.11-.04-.08-.02,.09,.05-.01-.01-.15-.1-.17-.09,.14,.11,.16,.13,.08,.05-.03-.03-.06-.06-.09-.1-.39-.44-1.2-.43-1.59,0-.43,.47-.42,1.12,0,1.59,.68,.77,1.86,.95,2.79,.59,1.08-.42,1.82-1.41,1.78-2.59-.04-1.12-.68-2.2-1.66-2.75-1.04-.59-2.34-.59-3.44-.15s-2.12,1.32-2.47,2.52,.16,2.43,1.11,3.2c1.64,1.33,4.28,1.44,5.56-.44,1.18-1.73,.12-4.33-1.83-4.91-2.1-.63-4.37,1.08-4.42,3.24-.02,1.03,.46,2.11,1.23,2.81,.88,.79,1.99,1.08,3.14,.89,2.21-.37,4.03-2.96,2.89-5.1-.41-.76-1.25-1.3-2.09-1.45-.99-.17-1.95,.02-2.74,.65-1.57,1.25-1.22,3.82,.18,5.06,.4,.35,.83,.6,1.34,.76,.56,.17,1.25-.2,1.38-.79s-.18-1.2-.79-1.38h0Z"/></g><g class="cls-1"><path d="M128.05,180.11c-.17,.06-.34,.11-.5,.17-.2,.07,0,.02,.04,0-.08,.03-.32-.04-.05,.03-.22-.06,.21,.15,.01,.02-.15-.11,.05,.04,.06,.05-.18-.15,.13,.21,.02,.01,.12,.21,.12,.42,.01,.64,.07-.14,.01,.08-.06,.06,.03,0,.12-.16,.15-.15-.03-.01-.2,.14-.02,.02,.05-.04,.11-.07,.16-.1,.02-.01,.18-.12,.2-.1-.05-.03-.23,.09-.02,.01,.16-.06,.32-.1,.48-.14,.07-.02,.33-.11,.38-.07l-.15,.02c.05,0,.1-.01,.15-.02,.05,0,.1,0,.15-.01,.08,0,.16-.01,.24-.01,.09,0,.3,.05,.02-.02,.21,.05-.03-.02-.04-.04,.03,.02,.07,.04,.1,.06-.15-.13-.19-.15-.11-.07l-.11-.14s.04,.06,.05,.09c0,0-.12-.28-.06-.12,.07,.2,0-.29,0-.08,0,.04,0,.1,0,.14,.02,.14,.07-.3,.01-.09-.01,.06-.03,.12-.04,.18-.01,.04-.09,.22,0,.04,.09-.19-.03,.05-.05,.08-.03,.05-.08,.1-.1,.15,.06-.17,.12-.14,.04-.06-.1,.1-.2,.2-.31,.3-.16,.14,.05-.05,.06-.04,0,0-.17,.11-.18,.12-.06,.04-.12,.07-.19,.1-.03,.02-.06,.03-.1,.05-.08,.04-.04,.02,.1-.04,0,0-.37,.11-.41,.12-.13,.03-.05-.05,.09,0-.05-.02-.16,.01-.21,.02-.07,0-.14,0-.21,0-.13,0-.06-.07,.09,.02-.1-.06-.28-.07-.4-.1-.23-.07,.23,.13,.02,0-.06-.03-.12-.06-.18-.1-.04-.02-.08-.05-.11-.07-.2-.13,.18,.18,.01,0-.04-.04-.19-.24-.24-.24l.09,.12s-.05-.07-.08-.11c-.03-.04-.1-.22-.13-.24,.02,0,.09,.27,.04,.08-.02-.07-.04-.13-.06-.2v-.07c-.04-.12-.03-.09,0,.1,0-.02,0-.12,0-.14,0-.07,0-.14,0-.2,0-.24-.07,.26,0,.03,.03-.11,.12-.28,.12-.39,0,.15-.09,.19-.03,.08,.03-.06,.06-.12,.1-.18,.02-.03,.12-.14,.12-.17,0,.1-.15,.17-.05,.07,.05-.05,.09-.1,.14-.15,.03-.03,.14-.1,.16-.14-.04,.11-.18,.12-.06,.05,.09-.05,.18-.1,.26-.15,.22-.13-.23,.07,.01,0,.05-.02,.1-.03,.14-.05,.07-.02,.15-.04,.22-.06l.07-.02c.12-.02,.1-.02-.07,0,.01-.03,.34-.02,.38-.02,.08,0,.15,0,.23,.01,.23,0-.24-.05,0,0,.14,.03,.27,.06,.41,.1,.02,0,.18,.05,.18,.06l-.13-.06s.09,.04,.13,.06c.04,.02,.09,.05,.13,.07l.06,.04c.1,.07,.08,.05-.05-.05,0,0,.15,.15,.15,.15-.09-.13-.11-.16-.07-.09,.02,.03,.04,.06,.06,.09,.13,.21-.09-.23,0,.02,.08,.23,.03-.22,0,.02,0,.02-.01,.16,0,.16l.02-.14c0,.05-.02,.11-.03,.16-.01,.05-.07,.15-.06,.2,0-.02,.13-.25,.04-.1-.03,.05-.06,.11-.09,.16-.02,.04-.05,.07-.07,.1,.11-.13,.13-.17,.08-.1-.08,.08-.16,.17-.24,.25-.16,.16,.18-.12,.05-.04-.04,.03-.09,.06-.13,.09-.09,.05-.2,.09-.28,.15,.2-.15,.16-.06,.03-.02-.08,.03-.16,.04-.24,.06-.11,.03-.1-.04,.11-.01-.06,0-.13,0-.19,0-.05,0-.14-.02-.19,0,.02,0,.29,.06,.11,.01-.06-.02-.12-.03-.18-.05-.22-.05,.24,.13,.05,.03-.03-.02-.07-.03-.1-.05-.03-.02-.07-.04-.1-.06-.09-.07-.06-.04,.09,.07-.05-.07-.14-.14-.2-.2-.15-.15,.15,.23,.03,.05-.03-.04-.05-.08-.08-.12s-.05-.08-.07-.13c-.11-.19,.09,.26,.02,.06-.04-.11-.07-.22-.09-.33-.05-.21,.01,.29,.01,.07,0-.04,0-.08,0-.11,0-.05,.01-.12,0-.17,.03,.26-.04,.21,0,.08,0-.04,.02-.07,.03-.11,.04-.13,.11-.14-.03,.06,.03-.04,.05-.1,.08-.15,.07-.11,.16-.11-.04,.05,.04-.03,.08-.08,.11-.11,.14-.14-.22,.14-.06,.04,.05-.03,.09-.06,.14-.08,.25-.13-.21,.06-.03,0,.1-.03,.21-.05,.31-.08-.32,.08-.21,.02-.11,.02,.06,0,.13,0,.19,0,.12,0,.22,.07-.09-.02,.05,.01,.11,.02,.16,.03s.1,.03,.15,.05c.19,.06-.24-.12-.07-.03,.05,.03,.09,.05,.14,.08,.23,.15-.15-.15-.02-.02,.02,.02,.05,.05,.07,.07,.13,.12-.16-.26-.02-.02,.02,.04,.04,.08,.06,.12,.04,.08,.02,.03-.06-.13,.01,.04,.02,.07,.03,.11,.06,.21,0-.28-.01-.07,0,.05-.01,.13,0,.17-.03-.25,.04-.22,0-.07-.01,.04-.1,.29-.02,.09s0-.01-.02,.02c-.02,.03-.04,.07-.06,.1-.07,.1-.04,.07,.07-.08-.08,.07-.19,.17-.25,.25,.14-.19,.17-.11,.06-.06-.06,.03-.13,.06-.18,.1,.2-.15,.19-.07,.06-.03-.15,.04-.13-.03,.08,0-.04,0-.13,0-.17,0,.2,.03,.25,.04,.13,.02-.04,0-.08-.02-.11-.03-.56-.17-1.25,.21-1.38,.79-.14,.61,.18,1.2,.79,1.38,1.84,.56,3.57-1.34,3.21-3.11-.17-.86-.86-1.48-1.64-1.78-.73-.28-1.55-.2-2.25,.12-1.53,.68-1.85,2.7-1.01,4.04,.43,.68,1.12,1.22,1.92,1.35,.85,.13,1.73-.04,2.42-.56,.79-.59,1.3-1.41,1.38-2.41,.08-1.05-.58-2-1.52-2.43-1.77-.8-3.96-.41-5.06,1.27-.49,.75-.66,1.73-.44,2.6s.85,1.62,1.62,2.03c1.67,.89,3.81,.25,4.81-1.34,.46-.73,.59-1.74,.16-2.51-.26-.47-.76-.81-1.28-.9s-1.05-.02-1.58,.07c-.84,.13-1.77,.49-2.33,1.16-.48,.57-.6,1.26-.27,1.95,.23,.49,.77,.89,1.31,.98,.58,.1,1.12,0,1.66-.21,.28-.11,.52-.25,.67-.52,.14-.24,.2-.6,.11-.87-.17-.53-.8-1.01-1.38-.79h0Z"/></g><g class="cls-1"><path d="M120.22,177.9c.08,2.11-.27,4.21-.04,6.32,.12,1.03,.33,2.08,.88,2.97,.6,.97,1.58,1.7,2.6,2.18,1.14,.54,2.35,.84,3.59,1.02,1.34,.2,2.75,.41,4.1,.17,2.51-.45,3.7-2.8,4.4-5,.28-.87,.52-1.75,.72-2.65,.16-.7,.48-1.36,.76-2.02,.23-.57-.25-1.23-.79-1.38-.64-.18-1.15,.23-1.38,.79-.4,.98-.69,1.89-.96,2.9-.42,1.59-.87,3.96-2.41,4.88-.94,.56-2.19,.34-3.22,.23s-2.1-.29-3.1-.64c-.82-.28-1.74-.75-2.28-1.46-.43-.58-.6-1.37-.68-2.08-.23-2.07,.12-4.15,.05-6.22-.05-1.44-2.3-1.45-2.25,0h0Z"/></g><g class="cls-1"><path d="M69.84,176.5c.01,.62,.14,1.19,.26,1.79,.14,.71,.08,1.46,.08,2.17,0,1.1,.02,2.24-.55,3.23-1.44,2.49-4.96,3.18-7.62,3.21-2.4,.03-5.06-2.27-5.62-4.55-.52-2.1-.71-4.29-.9-6.44-.21-2.27-.38-4.55-.42-6.83-.03-1.45-2.28-1.45-2.25,0,.04,2.36,.22,4.72,.44,7.07s.38,4.97,1.1,7.3c.85,2.77,4.11,5.42,7.01,5.67,1.69,.14,3.62-.24,5.24-.7s3.11-1.26,4.2-2.55c1.04-1.22,1.52-2.6,1.61-4.19,.05-.88,.03-1.77,.02-2.64s-.32-1.69-.34-2.55c-.03-1.45-2.28-1.45-2.25,0h0Z"/></g><g class="cls-1"><path d="M70.86,258.7c-.05-.02-.11-.04-.16-.06l.27,.11c-.1-.05-.2-.1-.29-.17l.23,.18c-.1-.08-.19-.17-.27-.27l.18,.23c-.09-.11-.16-.23-.21-.37l.11,.27c-.05-.13-.09-.26-.11-.4l.04,.3c-.01-.12-.02-.25,0-.37l-.04,.3c.02-.11,.04-.21,.09-.32l-.11,.27c.04-.09,.09-.17,.15-.25l-.18,.23c.06-.07,.12-.13,.19-.18l-.23,.18c.07-.05,.14-.09,.22-.13l-.27,.11c.12-.05,.24-.08,.36-.1l-.3,.04c.13-.01,.25-.01,.38,0l-.3-.04c.12,.02,.24,.05,.36,.1l-.27-.11c.09,.04,.17,.09,.25,.15l-.23-.18c.08,.06,.14,.13,.2,.2l-.18-.23c.04,.06,.08,.12,.11,.19l-.11-.27c.03,.08,.06,.17,.07,.26l-.04-.3c.01,.12,.01,.23,0,.35l.04-.3c-.02,.14-.06,.27-.11,.39l.11-.27c-.05,.12-.12,.24-.2,.34l.18-.23c-.09,.12-.19,.22-.31,.31l.23-.18c-.13,.1-.27,.18-.42,.25l.27-.11c-.15,.06-.3,.1-.47,.13l.3-.04c-.13,.01-.26,.02-.38,0l.3,.04c-.13-.02-.25-.05-.37-.1l.27,.11c-.12-.05-.23-.11-.33-.19l.23,.18c-.11-.09-.21-.19-.3-.3l.18,.23c-.09-.11-.16-.24-.22-.37l.11,.27c-.06-.13-.09-.27-.12-.41l.04,.3c-.02-.13-.02-.25,0-.38l-.04,.3c.02-.11,.04-.21,.08-.31l-.11,.27c.05-.11,.11-.21,.18-.31l-.18,.23c.08-.11,.18-.2,.29-.28l-.23,.18c.11-.08,.23-.15,.35-.2l-.27,.11c.13-.05,.25-.08,.39-.1l-.3,.04c.12-.01,.23-.01,.35,0l-.3-.04c.1,.02,.2,.04,.3,.08l-.27-.11c.09,.04,.17,.09,.25,.15l-.23-.18c.09,.07,.16,.15,.23,.24l-.18-.23c.07,.09,.12,.19,.17,.29l-.11-.27c.05,.12,.08,.24,.1,.37l-.04-.3c.02,.13,.02,.25,0,.38l.04-.3c-.02,.11-.04,.22-.09,.32l.11-.27c-.04,.09-.09,.17-.15,.25l.18-.23c-.06,.07-.12,.13-.19,.19l.23-.18c-.09,.07-.19,.13-.3,.17l.27-.11c-.11,.04-.22,.07-.34,.09l.3-.04c-.17,.02-.33,.02-.5,0l.3,.04c-.17-.03-.33-.07-.49-.13l.27,.11c-.14-.06-.27-.14-.4-.23l.23,.18c-.12-.09-.23-.2-.32-.32l.18,.23c-.07-.09-.12-.18-.17-.28l.11,.27c-.03-.08-.06-.17-.08-.26l.04,.3c-.01-.1-.01-.2,0-.31l-.04,.3c.02-.1,.05-.2,.09-.3l-.11,.27c.05-.11,.12-.22,.19-.32l-.18,.23c.1-.13,.22-.24,.35-.34l-.23,.18c.13-.1,.28-.18,.43-.25l-.27,.11c.18-.07,.35-.12,.54-.15l-.3,.04c.17-.02,.33-.02,.5,0l-.3-.04c.13,.02,.25,.05,.37,.1l-.27-.11c.11,.05,.21,.1,.3,.18l-.23-.18c.09,.07,.16,.15,.23,.24l-.18-.23c.07,.09,.12,.18,.17,.29l-.11-.27c.05,.12,.08,.23,.1,.36l-.04-.3c0,.09,0,.18,0,.28l.04-.3c-.02,.09-.04,.18-.08,.27l.11-.27c-.03,.06-.06,.12-.11,.17l.18-.23c-.05,.06-.11,.12-.18,.17l.23-.18c-.07,.05-.14,.09-.21,.12l.27-.11c-.09,.04-.18,.06-.28,.08l.3-.04c-.09,.01-.19,.01-.28,0l.3,.04c-.07-.01-.13-.03-.19-.05l.27,.11c-.06-.03-.12-.06-.17-.1l.23,.18s-.08-.07-.12-.11c-.39-.44-1.2-.43-1.59,0-.43,.47-.42,1.12,0,1.59,.51,.57,1.42,.74,2.13,.47,.45-.17,.81-.44,1.08-.84,.22-.32,.33-.77,.32-1.16-.03-.83-.49-1.64-1.23-2.05s-1.65-.45-2.43-.14c-.83,.33-1.55,.95-1.81,1.84s.1,1.81,.79,2.37c.57,.47,1.29,.77,2.04,.74,.83-.03,1.56-.41,2.03-1.1,.38-.57,.45-1.4,.22-2.04-.27-.75-.81-1.36-1.6-1.59-.69-.21-1.51-.06-2.09,.35-.68,.48-1.13,1.19-1.15,2.04-.02,.74,.32,1.52,.87,2.02,.31,.28,.66,.5,1.07,.61s.84,.11,1.27,.04c1.64-.27,2.84-2.21,2.02-3.74-.3-.56-.92-.97-1.53-1.08-.77-.13-1.48,.02-2.09,.51-.52,.42-.81,1.17-.76,1.83,.05,.69,.33,1.39,.86,1.86,.3,.27,.62,.46,1.01,.57,.56,.17,1.25-.2,1.38-.79s-.18-1.2-.79-1.38h0Z"/></g><g class="cls-1"><path d="M122.64,258.58c-.13,.05-.27,.1-.41,.13l.3-.04c-.07,0-.14,.01-.21,0l.3,.04s-.09-.02-.13-.03l.27,.11c-.05-.02-.1-.05-.14-.08l.23,.18s-.06-.06-.09-.09l.18,.23s-.04-.07-.06-.1l.11,.27s-.02-.05-.02-.08l.04,.3s0-.05,0-.08l-.04,.3s.01-.05,.02-.08l-.11,.27s.04-.07,.06-.1l-.18,.23c.05-.06,.1-.1,.16-.15l-.23,.18c.11-.08,.23-.15,.35-.21l-.27,.11c.22-.09,.44-.14,.67-.18l-.3,.04c.17-.02,.35-.04,.53-.03l-.3-.04s.09,.02,.14,.03l-.27-.11s.09,.04,.13,.07l-.23-.18s.05,.04,.07,.07l-.18-.23s.04,.07,.06,.11l-.11-.27s.03,.08,.03,.13l-.04-.3c0,.07,0,.14,0,.21l.04-.3c-.01,.1-.04,.19-.07,.28l.11-.27c-.04,.09-.09,.17-.15,.25l.18-.23c-.09,.11-.2,.21-.31,.3l.23-.18c-.12,.09-.24,.16-.38,.22l.27-.11c-.12,.05-.25,.08-.38,.1l.3-.04c-.13,.02-.26,.02-.39,0l.3,.04c-.12-.02-.24-.05-.36-.1l.27,.11c-.11-.05-.22-.11-.32-.19l.23,.18c-.09-.07-.16-.15-.23-.23l.18,.23c-.07-.09-.12-.18-.17-.28l.11,.27c-.04-.1-.07-.21-.09-.32l.04,.3c-.01-.11-.01-.22,0-.33l-.04,.3c.02-.12,.05-.24,.1-.36l-.11,.27c.05-.12,.12-.22,.19-.32l-.18,.23c.08-.1,.17-.19,.27-.26l-.23,.18c.1-.07,.2-.13,.31-.18l-.27,.11c.14-.06,.29-.1,.44-.12l-.3,.04c.17-.02,.34-.02,.51,0l-.3-.04c.17,.02,.33,.07,.49,.13l-.27-.11c.11,.05,.21,.1,.31,.17l-.23-.18c.06,.05,.11,.09,.16,.15l-.18-.23c.05,.06,.08,.12,.11,.19l-.11-.27c.02,.06,.04,.12,.05,.19l-.04-.3c0,.08,0,.16,0,.25l.04-.3c-.02,.1-.04,.2-.08,.3l.11-.27c-.04,.09-.09,.18-.15,.26l.18-.23c-.07,.09-.15,.17-.24,.25l.23-.18c-.1,.08-.21,.14-.33,.19l.27-.11c-.11,.04-.22,.07-.33,.09l.3-.04c-.1,.01-.2,.01-.3,0l.3,.04c-.09-.01-.17-.03-.25-.07l.27,.11c-.09-.04-.17-.08-.24-.14l.23,.18c-.07-.06-.14-.12-.2-.2l.18,.23c-.06-.08-.12-.17-.16-.27l.11,.27c-.05-.11-.08-.22-.09-.34l.04,.3c-.01-.09-.01-.18,0-.27l-.04,.3c.01-.09,.03-.18,.07-.26l-.11,.27c.03-.07,.07-.14,.12-.21l-.18,.23c.04-.05,.09-.1,.14-.14l-.23,.18c.07-.05,.14-.09,.22-.13l-.27,.11c.09-.04,.18-.06,.28-.07l-.3,.04c.1-.01,.19-.01,.29,0l-.3-.04c.1,.01,.19,.04,.28,.08l-.27-.11c.08,.03,.15,.08,.22,.13l-.23-.18s.09,.08,.13,.13l-.18-.23c.05,.06,.08,.13,.11,.2l-.11-.27c.02,.06,.03,.11,.04,.17l-.04-.3c0,.07,0,.14,0,.21l.04-.3c-.01,.08-.04,.16-.07,.24l.11-.27c-.03,.08-.08,.15-.13,.22l.18-.23c-.06,.08-.12,.14-.2,.2l.23-.18c-.07,.05-.14,.09-.21,.12l.27-.11c-.06,.03-.13,.04-.2,.05l.3-.04c-.06,0-.11,0-.17,0l.3,.04s-.09-.02-.14-.03c-.56-.17-1.25,.21-1.38,.79-.14,.61,.18,1.2,.79,1.38,.68,.21,1.41-.03,1.91-.52s.73-1.22,.58-1.91-.69-1.15-1.31-1.39c-.56-.21-1.17-.12-1.71,.12s-.93,.76-1.05,1.31c-.13,.59-.05,1.23,.28,1.75s.83,.92,1.43,1.02c.37,.06,.7,.06,1.07-.03,.26-.07,.53-.19,.75-.35,.29-.22,.53-.44,.73-.76s.3-.71,.33-1.09c.05-.78-.44-1.54-1.14-1.85-.66-.3-1.36-.39-2.07-.23-.67,.16-1.24,.59-1.61,1.16s-.48,1.28-.31,1.92,.62,1.19,1.19,1.49c.6,.32,1.3,.41,1.96,.21s1.21-.61,1.57-1.18,.43-1.37,.1-1.97c-.21-.37-.62-.68-1.04-.75s-.78-.03-1.19,.04c-.31,.05-.59,.15-.87,.28s-.54,.31-.74,.53c-.17,.2-.31,.42-.37,.68-.08,.36-.02,.71,.14,1.04,.19,.39,.63,.72,1.06,.8s.84,.03,1.25-.13c.28-.11,.52-.25,.67-.52,.14-.24,.2-.6,.11-.87s-.26-.53-.52-.67-.59-.22-.87-.11h0Z"/></g><g><path class="cls-2" d="M121.57,416.42c-1.28,1.53-2.38,2.35-3.28,3.57-1.85,2.55-2.91,4.02-3.4,7.13s.46,6.62,3.03,8.44c1.9,1.33,4.35,1.57,6.66,1.53,1.63-.03,3.33-.19,4.72-1.05,.82-.51,1.48-1.24,2.09-1.99,1.24-1.5,2.4-3.29,2.24-5.22-.13-1.63-.52-3.84-1.52-5.14-.88-1.13-1.64-2.61-2.51-3.74-1.73-2.24-3.25-4.03-5.7-5.45l-2.34,1.91Z"/><path class="cls-2" d="M120.51,415.36c-1.45,1.71-3.04,3.18-4.34,5.03-1.14,1.62-2.07,3.34-2.52,5.29-.96,4.15,0,8.98,3.82,11.38,1.99,1.25,4.45,1.54,6.75,1.54s4.82-.33,6.73-1.92c1.7-1.41,3.31-3.55,3.93-5.68,.59-1.99,.15-4.46-.59-6.36-.47-1.2-1.25-2.17-1.93-3.25s-1.36-2.09-2.14-3.08c-1.58-2.01-3.34-3.79-5.56-5.11-.62-.37-1.3-.19-1.82,.23-.78,.64-1.56,1.28-2.34,1.91-1.5,1.22,.64,3.33,2.12,2.12,.78-.64,1.56-1.28,2.34-1.91l-1.82,.23c3.2,1.9,5.11,4.9,7.14,7.9,.99,1.47,1.57,2.74,1.79,4.53,.23,1.88-.58,3.34-1.75,4.76-1.32,1.61-2.7,2.43-4.8,2.56-1.85,.11-3.87,.1-5.61-.61-3.19-1.29-4.09-5.05-3.46-8.15,.37-1.79,1.16-3.28,2.2-4.77,1.17-1.68,2.64-3.01,3.96-4.56,1.25-1.46-.87-3.59-2.12-2.12Z"/></g></g></g></svg>